<mxfile host="app.diagrams.net" modified="2021-05-16T15:31:39.142Z" agent="5.0 (Windows NT 10.0; Win64; x64) AppleWebKit/537.36 (KHTML, like Gecko) Chrome/90.0.4430.212 Safari/537.36" etag="TlL7YlHMG9wVyo-qWm4e" version="14.6.13" type="github">
  <diagram name="Page-1" id="edf60f1a-56cd-e834-aa8a-f176f3a09ee4">
    <mxGraphModel dx="818" dy="454" grid="1" gridSize="10" guides="1" tooltips="1" connect="1" arrows="1" fold="1" page="1" pageScale="1" pageWidth="1100" pageHeight="850" background="#ffffff" math="0" shadow="0">
      <root>
        <mxCell id="0" />
        <mxCell id="1" parent="0" />
        <mxCell id="jx8i601O-3aqdrrUikx3-10" value="fibonacciGenerator(5)" style="text;html=1;strokeColor=none;fillColor=none;align=center;verticalAlign=middle;whiteSpace=wrap;rounded=0;" vertex="1" parent="1">
          <mxGeometry x="250" y="30" width="130" height="20" as="geometry" />
        </mxCell>
        <mxCell id="jx8i601O-3aqdrrUikx3-11" value="START" style="rounded=1;whiteSpace=wrap;html=1;" vertex="1" parent="1">
          <mxGeometry x="120" y="80" width="120" height="40" as="geometry" />
        </mxCell>
        <mxCell id="jx8i601O-3aqdrrUikx3-12" value="Is n 1?" style="rhombus;whiteSpace=wrap;html=1;" vertex="1" parent="1">
          <mxGeometry x="130" y="170" width="100" height="80" as="geometry" />
        </mxCell>
        <mxCell id="jx8i601O-3aqdrrUikx3-15" value="Is n 2?" style="rhombus;whiteSpace=wrap;html=1;" vertex="1" parent="1">
          <mxGeometry x="130" y="290" width="100" height="80" as="geometry" />
        </mxCell>
        <mxCell id="jx8i601O-3aqdrrUikx3-20" value="" style="triangle;whiteSpace=wrap;html=1;rotation=90;" vertex="1" parent="1">
          <mxGeometry x="175.9" y="160" width="8.21" height="10" as="geometry" />
        </mxCell>
        <mxCell id="jx8i601O-3aqdrrUikx3-23" value="" style="endArrow=none;html=1;exitX=0;exitY=0.5;exitDx=0;exitDy=0;" edge="1" parent="1" source="jx8i601O-3aqdrrUikx3-20" target="jx8i601O-3aqdrrUikx3-11">
          <mxGeometry width="50" height="50" relative="1" as="geometry">
            <mxPoint x="180" y="160" as="sourcePoint" />
            <mxPoint x="230" y="110" as="targetPoint" />
          </mxGeometry>
        </mxCell>
        <mxCell id="jx8i601O-3aqdrrUikx3-24" value="" style="endArrow=none;html=1;" edge="1" parent="1">
          <mxGeometry width="50" height="50" relative="1" as="geometry">
            <mxPoint x="180" y="280" as="sourcePoint" />
            <mxPoint x="179.84164217095005" y="250.00000000000006" as="targetPoint" />
          </mxGeometry>
        </mxCell>
        <mxCell id="jx8i601O-3aqdrrUikx3-25" value="" style="triangle;whiteSpace=wrap;html=1;rotation=90;" vertex="1" parent="1">
          <mxGeometry x="175.9" y="280" width="8.21" height="10" as="geometry" />
        </mxCell>
        <mxCell id="jx8i601O-3aqdrrUikx3-26" value="" style="triangle;whiteSpace=wrap;html=1;rotation=0;" vertex="1" parent="1">
          <mxGeometry x="270" y="205" width="10" height="10" as="geometry" />
        </mxCell>
        <mxCell id="jx8i601O-3aqdrrUikx3-30" value="" style="endArrow=none;html=1;exitX=1;exitY=0.5;exitDx=0;exitDy=0;entryX=0;entryY=0.5;entryDx=0;entryDy=0;" edge="1" parent="1" source="jx8i601O-3aqdrrUikx3-12" target="jx8i601O-3aqdrrUikx3-26">
          <mxGeometry width="50" height="50" relative="1" as="geometry">
            <mxPoint x="310" y="230" as="sourcePoint" />
            <mxPoint x="360" y="180" as="targetPoint" />
          </mxGeometry>
        </mxCell>
        <mxCell id="jx8i601O-3aqdrrUikx3-31" value="Output [0]" style="rounded=1;whiteSpace=wrap;html=1;" vertex="1" parent="1">
          <mxGeometry x="280" y="190" width="120" height="40" as="geometry" />
        </mxCell>
        <mxCell id="jx8i601O-3aqdrrUikx3-32" value="" style="endArrow=none;html=1;exitX=1;exitY=0.5;exitDx=0;exitDy=0;entryX=0;entryY=0.5;entryDx=0;entryDy=0;" edge="1" parent="1">
          <mxGeometry width="50" height="50" relative="1" as="geometry">
            <mxPoint x="230" y="330" as="sourcePoint" />
            <mxPoint x="270" y="330" as="targetPoint" />
          </mxGeometry>
        </mxCell>
        <mxCell id="jx8i601O-3aqdrrUikx3-33" value="" style="triangle;whiteSpace=wrap;html=1;rotation=0;" vertex="1" parent="1">
          <mxGeometry x="270" y="325" width="10" height="10" as="geometry" />
        </mxCell>
        <mxCell id="jx8i601O-3aqdrrUikx3-34" value="Output [0, 1]" style="rounded=1;whiteSpace=wrap;html=1;" vertex="1" parent="1">
          <mxGeometry x="280" y="310" width="120" height="40" as="geometry" />
        </mxCell>
        <mxCell id="jx8i601O-3aqdrrUikx3-38" value="Yes" style="text;html=1;strokeColor=none;fillColor=none;align=center;verticalAlign=middle;whiteSpace=wrap;rounded=0;" vertex="1" parent="1">
          <mxGeometry x="230" y="190" width="40" height="20" as="geometry" />
        </mxCell>
        <mxCell id="jx8i601O-3aqdrrUikx3-39" value="Yes" style="text;html=1;strokeColor=none;fillColor=none;align=center;verticalAlign=middle;whiteSpace=wrap;rounded=0;" vertex="1" parent="1">
          <mxGeometry x="230" y="310" width="40" height="20" as="geometry" />
        </mxCell>
        <mxCell id="jx8i601O-3aqdrrUikx3-40" value="No" style="text;html=1;strokeColor=none;fillColor=none;align=center;verticalAlign=middle;whiteSpace=wrap;rounded=0;" vertex="1" parent="1">
          <mxGeometry x="180" y="260" width="40" height="20" as="geometry" />
        </mxCell>
        <mxCell id="jx8i601O-3aqdrrUikx3-45" value="" style="edgeStyle=none;rounded=0;orthogonalLoop=1;jettySize=auto;html=1;" edge="1" parent="1" source="jx8i601O-3aqdrrUikx3-41" target="jx8i601O-3aqdrrUikx3-44">
          <mxGeometry relative="1" as="geometry" />
        </mxCell>
        <mxCell id="jx8i601O-3aqdrrUikx3-41" value="Sum last&lt;br&gt;two values." style="rhombus;whiteSpace=wrap;html=1;" vertex="1" parent="1">
          <mxGeometry x="130" y="430" width="100" height="80" as="geometry" />
        </mxCell>
        <mxCell id="jx8i601O-3aqdrrUikx3-42" value="" style="endArrow=none;html=1;exitX=0;exitY=0.5;exitDx=0;exitDy=0;" edge="1" parent="1" source="jx8i601O-3aqdrrUikx3-43">
          <mxGeometry width="50" height="50" relative="1" as="geometry">
            <mxPoint x="180" y="420" as="sourcePoint" />
            <mxPoint x="180.00164217095008" y="370" as="targetPoint" />
          </mxGeometry>
        </mxCell>
        <mxCell id="jx8i601O-3aqdrrUikx3-43" value="" style="triangle;whiteSpace=wrap;html=1;rotation=90;" vertex="1" parent="1">
          <mxGeometry x="175.9" y="420" width="8.21" height="10" as="geometry" />
        </mxCell>
        <mxCell id="jx8i601O-3aqdrrUikx3-59" value="" style="edgeStyle=none;rounded=0;orthogonalLoop=1;jettySize=auto;html=1;exitX=0.5;exitY=1;exitDx=0;exitDy=0;entryX=0;entryY=0.5;entryDx=0;entryDy=0;" edge="1" parent="1" source="jx8i601O-3aqdrrUikx3-44" target="jx8i601O-3aqdrrUikx3-41">
          <mxGeometry relative="1" as="geometry">
            <mxPoint x="80" y="440" as="targetPoint" />
            <Array as="points">
              <mxPoint x="180" y="680" />
              <mxPoint x="80" y="680" />
              <mxPoint x="80" y="470" />
            </Array>
          </mxGeometry>
        </mxCell>
        <mxCell id="jx8i601O-3aqdrrUikx3-44" value="Does n equal&lt;br&gt;number of items&lt;br&gt;in output?" style="rhombus;whiteSpace=wrap;html=1;" vertex="1" parent="1">
          <mxGeometry x="110" y="570" width="140" height="80" as="geometry" />
        </mxCell>
        <mxCell id="jx8i601O-3aqdrrUikx3-61" value="No" style="text;html=1;strokeColor=none;fillColor=none;align=center;verticalAlign=middle;whiteSpace=wrap;rounded=0;" vertex="1" parent="1">
          <mxGeometry x="180" y="660" width="40" height="20" as="geometry" />
        </mxCell>
        <mxCell id="jx8i601O-3aqdrrUikx3-62" value="Output" style="rounded=1;whiteSpace=wrap;html=1;" vertex="1" parent="1">
          <mxGeometry x="280" y="590" width="120" height="40" as="geometry" />
        </mxCell>
        <mxCell id="jx8i601O-3aqdrrUikx3-63" value="" style="endArrow=none;html=1;exitX=1;exitY=0.5;exitDx=0;exitDy=0;" edge="1" parent="1">
          <mxGeometry width="50" height="50" relative="1" as="geometry">
            <mxPoint x="250" y="609.9300000000001" as="sourcePoint" />
            <mxPoint x="270" y="610" as="targetPoint" />
          </mxGeometry>
        </mxCell>
        <mxCell id="jx8i601O-3aqdrrUikx3-64" value="" style="triangle;whiteSpace=wrap;html=1;rotation=0;" vertex="1" parent="1">
          <mxGeometry x="270" y="605" width="10" height="10" as="geometry" />
        </mxCell>
        <mxCell id="jx8i601O-3aqdrrUikx3-65" value="No" style="text;html=1;strokeColor=none;fillColor=none;align=center;verticalAlign=middle;whiteSpace=wrap;rounded=0;" vertex="1" parent="1">
          <mxGeometry x="180" y="400" width="40" height="20" as="geometry" />
        </mxCell>
      </root>
    </mxGraphModel>
  </diagram>
</mxfile>
